nColumns=19
nRows=72
DataType=double
version=3
OpenSimVersion=4.1
endheader
time	ground_force_calcn_r_vx	ground_force_calcn_r_vy	ground_force_calcn_r_vz	ground_force_calcn_r_px	ground_force_calcn_r_py	ground_force_calcn_r_pz	ground_force_calcn_r_mx	ground_force_calcn_r_my	ground_force_calcn_r_mz	ground_force_calcn_l_vx	ground_force_calcn_l_vy	ground_force_calcn_l_vz	ground_force_calcn_l_px	ground_force_calcn_l_py	ground_force_calcn_l_pz	ground_force_calcn_l_mx	ground_force_calcn_l_my	ground_force_calcn_l_mz
3.55	-334.597	1952.4	-67.672	0.789547	0	-0.233717	-0.288967	1.68614	-0.0584433	0	0	0	0	0	0	0	0	0
3.56	-287.553	2100.06	-92.0668	0.750649	0	-0.23471	-0.477405	3.48659	-0.152852	0	0	0	0	0	0	0	0	0
3.57	-202.679	2212.4	-118.433	0.710702	0	-0.233933	-0.574489	6.271	-0.335696	0	0	0	0	0	0	0	0	0
3.58	-105.029	2252.59	-132.801	0.670727	0	-0.232132	-0.431521	9.25498	-0.545624	0	0	0	0	0	0	0	0	0
3.59	9.15822	2202.49	-135.795	0.627929	0	-0.231049	0.0480464	11.5548	-0.712417	0	0	0	0	0	0	0	0	0
3.6	130.134	2065.81	-128.701	0.582875	0	-0.230723	0.787243	12.497	-0.778569	0	0	0	0	0	0	0	0	0
3.61	231.016	1855.3	-110.517	0.53973	0	-0.230212	1.47566	11.8511	-0.705954	0	0	0	0	0	0	0	0	0
3.62	297.927	1570.09	-86.2936	0.499348	0	-0.229482	1.87077	9.85904	-0.541862	0	0	0	0	0	0	0	0	0
3.63	323.038	1214.07	-63.7564	0.457267	0	-0.228975	1.87699	7.05427	-0.370451	0	0	0	0	0	0	0	0	0
3.64	299.265	828.205	-45.3007	0.407089	0	-0.228319	1.47201	4.07373	-0.222823	0	0	0	0	0	0	0	0	0
3.65	224.831	488.412	-29.2321	0.359409	0	-0.22713	0.708858	1.53989	-0.0921644	0	0	0	0	0	0	0	0	0
3.66	122.313	248.93	-14.637	0.359968	0	-0.224842	-0.10883	-0.221489	0.0130235	0	0	0	0	0	0	0	0	0
3.67	42.7555	105.876	-3.48677	0.43573	0	-0.216813	-0.546168	-1.35248	0.0445407	0	0	0	0	0	0	0	0	0
3.68	8.92229	35.2279	1.49077	0.555272	0	-0.194483	-0.47067	-1.85835	-0.0786413	0	0	0	0	0	0	0	0	0
3.69	0	0	0	0	0	0	0	0	0	0	0	0	0	0	0	0	0	0
3.7	0	0	0	0	0	0	0	0	0	0	0	0	0	0	0	0	0	0
3.71	0	0	0	0	0	0	0	0	0	0	0	0	0	0	0	0	0	0
3.72	0	0	0	0	0	0	0	0	0	0	0	0	0	0	0	0	0	0
3.73	0	0	0	0	0	0	0	0	0	0	0	0	0	0	0	0	0	0
3.74	0	0	0	0	0	0	0	0	0	0	0	0	0	0	0	0	0	0
3.75	0	0	0	0	0	0	0	0	0	0	0	0	0	0	0	0	0	0
3.76	0	0	0	0	0	0	0	0	0	0	0	0	0	0	0	0	0	0
3.77	0	0	0	0	0	0	0	0	0	0	0	0	0	0	0	0	0	0
3.78	0	0	0	0	0	0	0	0	0	0	0	0	0	0	0	0	0	0
3.79	0	0	0	0	0	0	0	0	0	-11.1282	15.8852	-2.56994	0.968207	0	-0.529026	-1.91499	2.73358	-0.442244
3.8	0	0	0	0	0	0	0	0	0	-31.8725	70.9648	-0.73093	0.887775	0	-0.472799	-1.1069	2.46454	-0.0253844
3.81	0	0	0	0	0	0	0	0	0	-87.9531	248.394	11.8627	0.878138	0	-0.453406	-0.179119	0.505861	0.0241588
3.82	0	0	0	0	0	0	0	0	0	-161.561	601.097	41.3229	0.874523	0	-0.437364	0.597265	-2.22216	-0.152764
3.83	0	0	0	0	0	0	0	0	0	-195.003	1039.31	75.0749	0.856715	0	-0.422203	0.891048	-4.749	-0.343047
3.84	0	0	0	0	0	0	0	0	0	-197.721	1406.76	82.752	0.825272	0	-0.413134	0.874464	-6.22171	-0.365988
3.85	0	0	0	0	0	0	0	0	0	-213.089	1636.47	58.0004	0.789267	0	-0.413172	0.874542	-6.71625	-0.238041
3.86	0	0	0	0	0	0	0	0	0	-230.325	1800.97	39.9411	0.753749	0	-0.416071	0.918088	-7.17875	-0.159207
3.87	0	0	0	0	0	0	0	0	0	-217.437	1981.03	61.5128	0.718715	0	-0.415432	0.931817	-8.48963	-0.26361
3.88	0	0	0	0	0	0	0	0	0	-154.8	2138.88	101.631	0.681303	0	-0.414481	0.769989	-10.6389	-0.505518
3.89	0	0	0	0	0	0	0	0	0	-54.4966	2202.1	120.578	0.639316	0	-0.417436	0.315911	-12.7653	-0.698974
3.9	0	0	0	0	0	0	0	0	0	60.6826	2162.95	115.756	0.594103	0	-0.421579	-0.386861	-13.7891	-0.737966
3.91	0	0	0	0	0	0	0	0	0	169.292	2043.31	108.236	0.550405	0	-0.422413	-1.0721	-12.9399	-0.685437
3.92	0	0	0	0	0	0	0	0	0	261.843	1845	99.1064	0.50943	0	-0.420144	-1.41941	-10.0014	-0.53724
3.93	0	0	0	0	0	0	0	0	0	329.373	1562.62	74.9148	0.4681	0	-0.418377	-1.1442	-5.42836	-0.260245
3.94	0	0	0	0	0	0	0	0	0	352.988	1211.86	39.3975	0.424206	0	-0.418553	-0.105659	-0.362741	-0.0117927
3.95	0	0	0	0	0	0	0	0	0	325.376	840.099	10.7353	0.377593	0	-0.418265	1.45394	3.75398	0.0479704
3.96	0	0	0	0	0	0	0	0	0	255.812	510.171	-3.56163	0.332688	0	-0.413998	2.95052	5.88428	-0.0410796
3.97	0	0	0	0	0	0	0	0	0	160.264	267.496	-10.0081	0.315364	0	-0.404576	3.657	6.1039	-0.22837
3.98	0	0	0	0	0	0	0	0	0	74.3609	115.297	-12.8442	0.336062	0	-0.393993	3.33292	5.1677	-0.57569
3.99	0	0	0	0	0	0	0	0	0	26.5017	38.8415	-10.2955	0.348503	0	-0.366997	2.35537	3.45209	-0.915027
4	0	0	0	0	0	0	0	0	0	6.74809	17.5359	-3.91447	0.659781	0	-0.241939	0.937574	2.43642	-0.543874
4.01	0	0	0	0	0	0	0	0	0	-2.23794	10.2093	0.444983	1.07278	0	-0.146991	-0.196061	0.894415	0.0389841
4.02	0	0	0	0	0	0	0	0	0	0	0	0	0	0	0	0	0	0
4.03	0	0	0	0	0	0	0	0	0	0	0	0	0	0	0	0	0	0
4.04	0	0	0	0	0	0	0	0	0	0	0	0	0	0	0	0	0	0
4.05	0	0	0	0	0	0	0	0	0	0	0	0	0	0	0	0	0	0
4.06	0	0	0	0	0	0	0	0	0	0	0	0	0	0	0	0	0	0
4.07	0	0	0	0	0	0	0	0	0	0	0	0	0	0	0	0	0	0
4.08	0	0	0	0	0	0	0	0	0	0	0	0	0	0	0	0	0	0
4.09	-7.85989	22.3691	-6.37799	0.878401	0	-0.236581	-0.780689	2.22182	-0.633498	0	0	0	0	0	0	0	0	0
4.1	-32.2006	92.0155	-15.9479	0.916489	0	-0.260044	-1.1309	3.23162	-0.560098	0	0	0	0	0	0	0	0	0
4.11	-88.0192	308.516	-29.0245	0.923049	0	-0.261698	-1.13965	3.99458	-0.375802	0	0	0	0	0	0	0	0	0
4.12	-160.986	721.25	-37.4771	0.917852	0	-0.264461	-0.898407	4.02505	-0.209147	0	0	0	0	0	0	0	0	0
4.13	-202.144	1179.42	-31.6696	0.897158	0	-0.269927	-0.563567	3.28817	-0.0882931	0	0	0	0	0	0	0	0	0
4.14	-233.956	1490.7	-12.6111	0.868926	0	-0.274835	-0.358067	2.2815	-0.0193012	0	0	0	0	0	0	0	0	0
4.15	-292.978	1664.79	1.55548	0.840935	0	-0.277245	-0.331289	1.88249	0.00175888	0	0	0	0	0	0	0	0	0
4.16	-310.471	1825.93	-6.52925	0.807462	0	-0.278817	-0.475392	2.79586	-0.00999756	0	0	0	0	0	0	0	0	0
4.17	-255.036	2022.82	-30.6698	0.768561	0	-0.279371	-0.647953	5.13924	-0.0779207	0	0	0	0	0	0	0	0	0
4.18	-178.23	2193.02	-52.6017	0.732521	0	-0.277305	-0.679111	8.35607	-0.200428	0	0	0	0	0	0	0	0	0
4.19	-107.182	2269.03	-68.4173	0.698769	0	-0.27433	-0.54482	11.5337	-0.347773	0	0	0	0	0	0	0	0	0
4.2	-33.5	2243.89	-81.5808	0.662768	0	-0.272578	-0.206015	13.7993	-0.501697	0	0	0	0	0	0	0	0	0
4.21	43.2598	2142.07	-85.0436	0.624663	0	-0.271165	0.294234	14.5694	-0.578428	0	0	0	0	0	0	0	0	0
4.22	129.649	1976.26	-73.6564	0.584124	0	-0.26911	0.900627	13.7284	-0.511664	0	0	0	0	0	0	0	0	0
4.23	228.657	1742.3	-57.1106	0.539386	0	-0.267579	1.52216	11.5984	-0.380184	0	0	0	0	0	0	0	0	0
4.24	304.083	1447.21	-44.6899	0.492402	0	-0.267383	1.84969	8.80316	-0.271842	0	0	0	0	0	0	0	0	0
4.25	325.305	1113.33	-34.0117	0.445792	0	-0.26709	1.7539	6.00257	-0.183376	0	0	0	0	0	0	0	0	0
4.26	292.07	772.412	-22.0809	0.402398	0	-0.264879	1.37488	3.63602	-0.103943	0	0	0	0	0	0	0	0	0
